PathFileType	4	(X/Y/Z)	/Users/itak/Documents/Research/Walk-IL/dataset/trc/00371_00011.trc
DataRate	CameraRate	NumFrames	NumMarkers	Units	OrigDataRate	OrigDataStartFrame	OrigNumFrames
100.000000	100.000000	4	55	mm	100.000000	438	501
Frame#	Time	LPSI			L3			STRN			T10			C7			CLAV			RBAK			LBAK			LSHO			LUPA			LAEL			LAOL			LWTS			LWPS			LFRA			LIFD			LHPS			LHTS			RSHO			RUPA			RAEL			RAOL			RWTS			RWPS			RFRA			RIFD			RHTS			RHPS			RBHD			LFHD			RFHD			LBHD			LHIP			RHIP			RASI			LASI			LKNE			LTHI			LANK			LTIP			LTOE			LMT1			LMT5			LHEE			RKNE			RTHI			RANK			RTIP			RTOE			RMT1			RMT5			RHEE			RPSI			*53			*54			
		X1	Y1	Z1	X2	Y2	Z2	X3	Y3	Z3	X4	Y4	Z4	X5	Y5	Z5	X6	Y6	Z6	X7	Y7	Z7	X8	Y8	Z8	X9	Y9	Z9	X10	Y10	Z10	X11	Y11	Z11	X12	Y12	Z12	X13	Y13	Z13	X14	Y14	Z14	X15	Y15	Z15	X16	Y16	Z16	X17	Y17	Z17	X18	Y18	Z18	X19	Y19	Z19	X20	Y20	Z20	X21	Y21	Z21	X22	Y22	Z22	X23	Y23	Z23	X24	Y24	Z24	X25	Y25	Z25	X26	Y26	Z26	X27	Y27	Z27	X28	Y28	Z28	X29	Y29	Z29	X30	Y30	Z30	X31	Y31	Z31	X32	Y32	Z32	X33	Y33	Z33	X34	Y34	Z34	X35	Y35	Z35	X36	Y36	Z36	X37	Y37	Z37	X38	Y38	Z38	X39	Y39	Z39	X40	Y40	Z40	X41	Y41	Z41	X42	Y42	Z42	X43	Y43	Z43	X44	Y44	Z44	X45	Y45	Z45	X46	Y46	Z46	X47	Y47	Z47	X48	Y48	Z48	X49	Y49	Z49	X50	Y50	Z50	X51	Y51	Z51	X52	Y52	Z52	X53	Y53	Z53	X54	Y54	Z54	X55	Y55	Z55	

439	4.38	131.3358612060547	976.1134033203125	1028.036743164062	65.12029266357422	1025.674072265625	1027.839111328125	91.79093933105469	1235.119384765625	1237.588623046875	81.42691040039062	1142.314575195312	1005.785217285156	113.6437911987305	1393.636596679688	1018.371826171875	102.9301605224609	1355.18017578125	1181.222778320312	39.16388702392578	1252.92919921875	988.2860107421875	211.5822448730469	1349.422607421875	1011.934020996094	268.5929260253906	1372.861206054688	1095.212890625	329.3453369140625	1248.33935546875	1085.368286132812	335.6119689941406	1045.718505859375	1115.158935546875	276.5572814941406	1029.9794921875	1056.123657226562	287.9237365722656	812.286865234375	1228.8740234375	340.7252502441406	796.7255249023438	1187.47119140625	340.188720703125	942.8680419921875	1136.655029296875	273.6560974121094	648.2479248046875	1237.617919921875	330.7502746582031	726.7432250976562	1186.687622070312	299.089599609375	732.5665283203125	1242.526977539062	-51.12655639648438	1395.972534179688	1072.704467773438	-116.7366561889648	1333.626953125	1066.878784179688	-172.8652801513672	1073.080932617188	1110.503784179688	-88.83243560791016	1054.72607421875	1071.33984375	-128.9171447753906	861.5968627929688	1251.469970703125	-200.2786407470703	845.9512939453125	1225.736938476562	-184.8788604736328	1010.196838378906	1145.970703125	-141.5054016113281	696.3253173828125	1296.125244140625	-147.7541809082031	768.6160278320312	1298.335693359375	-201.4324188232422	766.32373046875	1254.130981445312	34.49643325805664	1612.460571289062	1053.385620117188	159.0629730224609	1624.05126953125	1220.4912109375	58.4294319152832	1628.921997070312	1213.256469726562	178.8127593994141	1600.230102539062	1036.55126953125	231.1802520751953	916.8527221679688	1120.7216796875	-105.7746124267578	930.3785400390625	1112.416015625	-60.30999755859375	960.6238403320312	1215.970336914062	179.5257720947266	951.3719482421875	1234.743530273438	244.3981475830078	467.7953491210938	1149.137939453125	248.2505493164062	607.3524169921875	1153.547973632812	255.9317169189453	47.34335327148438	1081.480590820312	262.4534606933594	253.2844848632812	1111.948364257812	192.2200164794922	46.8229866027832	1286.778442382812	153.8283538818359	33.56223678588867	1216.79248046875	266.6247863769531	42.92356872558594	1207.9619140625	188.9779968261719	39.7309455871582	1047.795166015625	-115.7580490112305	469.2347412109375	1129.881469726562	-113.3998947143555	723.4749755859375	1185.613525390625	-121.7558898925781	49.84971237182617	1089.871215820312	-116.1147689819336	353.47412109375	1136.6376953125	-55.32559585571289	49.12292098999023	1279.324340820312	-18.44950866699219	45.36114120483398	1221.6611328125	-132.6125793457031	37.43720245361328	1192.151123046875	-76.13440704345703	51.70191955566406	1037.790405273438	3.287969589233398	979.5525512695312	1030.406127929688	nan	nan	nan	nan	nan	nan	
440	4.39	130.9479370117188	976.128662109375	1028.0244140625	64.62894439697266	1025.7021484375	1027.943725585938	91.60127258300781	1234.899780273438	1237.669677734375	80.8311767578125	1142.399047851562	1005.951049804688	112.9077453613281	1393.69873046875	1018.664611816406	102.6158981323242	1355.142578125	1181.452026367188	38.45273208618164	1253.0107421875	988.5623168945312	210.8421936035156	1349.57861328125	1011.932800292969	268.0719909667969	1372.978881835938	1095.080078125	328.769775390625	1248.462646484375	1084.957763671875	334.9869384765625	1045.777954101562	1114.632080078125	275.8680114746094	1030.081665039062	1055.648071289062	287.1466064453125	812.4175415039062	1228.413696289062	339.9076232910156	796.7777099609375	1187.007568359375	339.4821166992188	942.9317016601562	1136.116455078125	272.8002624511719	648.4898071289062	1237.44580078125	329.8634033203125	726.7440185546875	1186.286499023438	298.2708435058594	732.681640625	1242.147094726562	-51.78973770141602	1395.852294921875	1073.357055664062	-117.3019714355469	1333.3662109375	1067.6787109375	-172.6219482421875	1072.639282226562	1111.02197265625	-88.61981964111328	1054.554931640625	1071.705810546875	-128.4575500488281	860.1416625976562	1250.650390625	-199.9597320556641	844.8982543945312	1224.988403320312	-184.4533996582031	1009.697937011719	1146.339599609375	-141.0399932861328	694.6175537109375	1294.05908203125	-147.0895538330078	767.0248413085938	1297.048583984375	-201.0513153076172	765.05078125	1252.893798828125	33.67716979980469	1612.363525390625	1053.735961914062	158.6942901611328	1624.273681640625	1220.516967773438	58.09283065795898	1629.01171875	1213.5283203125	178.0369110107422	1600.197143554688	1036.55810546875	230.7433929443359	916.6876831054688	1120.66650390625	-106.0579986572266	930.4661254882812	1112.620727539062	-60.46596145629883	960.6533203125	1216.186889648438	179.3801116943359	951.3358764648438	1234.653686523438	244.3017578125	467.7707214355469	1149.022338867188	247.9377593994141	607.216552734375	1153.496215820312	255.9923248291016	47.29711151123047	1081.46484375	262.3522338867188	253.2342834472656	1111.833618164062	192.1363983154297	46.42118072509766	1286.885864257812	153.8299255371094	33.51995086669922	1216.789184570312	266.6017150878906	42.88520050048828	1207.963623046875	188.9943084716797	39.7142219543457	1047.8076171875	-115.8548278808594	469.2069091796875	1130.111083984375	-113.7475128173828	723.5834350585938	1185.816772460938	-121.6969146728516	49.88400268554688	1089.842163085938	-116.0920791625977	353.4430541992188	1136.773803710938	-55.26156997680664	49.10427093505859	1279.356811523438	-18.40008544921875	45.32168960571289	1221.651611328125	-132.5663146972656	37.46275329589844	1192.148559570312	-76.11552429199219	51.70423889160156	1037.825317382812	2.8633713722229	979.6437377929688	1030.3828125	nan	nan	nan	nan	nan	nan	
441	4.4	130.5983581542969	976.1846923828125	1027.97900390625	64.18232727050781	1025.754516601562	1028.024658203125	91.47373962402344	1234.688232421875	1237.734741210938	80.29152679443359	1142.499755859375	1006.074340820312	112.2184677124023	1393.771728515625	1018.950866699219	102.3098373413086	1355.102783203125	1181.663208007812	37.78864288330078	1253.11767578125	988.8118896484375	210.1442108154297	1349.740966796875	1011.953125	267.5835571289062	1373.115356445312	1094.983764648438	328.22802734375	1248.58984375	1084.597412109375	334.3914489746094	1045.852783203125	1114.155883789062	275.1916809082031	1030.194458007812	1055.2392578125	286.3697814941406	812.5451049804688	1227.986450195312	339.1103820800781	796.8456420898438	1186.581665039062	338.7698364257812	942.9992065429688	1135.661499023438	271.9568481445312	648.7355346679688	1237.294921875	328.9722595214844	726.7373046875	1185.93017578125	297.4621887207031	732.7993774414062	1241.775512695312	-52.40711212158203	1395.74755859375	1073.98193359375	-117.837158203125	1333.105590820312	1068.425903320312	-172.3394622802734	1072.194213867188	1111.419677734375	-88.38172912597656	1054.398681640625	1071.975341796875	-128.0124053955078	858.7067260742188	1249.737670898438	-199.6175994873047	843.8928833007812	1224.156372070312	-184.0079803466797	1009.211486816406	1146.571044921875	-140.5187530517578	692.9732055664062	1291.959716796875	-146.3273010253906	765.3411865234375	1295.620971679688	-200.6015472412109	763.8031005859375	1251.555541992188	32.88008117675781	1612.259521484375	1054.097290039062	158.3385925292969	1624.521240234375	1220.53076171875	57.77775573730469	1629.10009765625	1213.797485351562	177.2904205322266	1600.167602539062	1036.560791015625	230.3570709228516	916.5546875	1120.541381835938	-106.3245010375977	930.537353515625	1112.80810546875	-60.58780288696289	960.690673828125	1216.404418945312	179.2446594238281	951.289306640625	1234.558227539062	244.2272186279297	467.7477722167969	1148.88525390625	247.6601104736328	607.0875854492188	1153.3896484375	256.0734252929688	47.24013519287109	1081.444213867188	262.2728271484375	253.1884307861328	1111.721557617188	192.0611267089844	46.10235977172852	1286.948974609375	153.8364105224609	33.48865127563477	1216.77880859375	266.5878601074219	42.84551620483398	1207.968017578125	189.0232086181641	39.70662307739258	1047.81298828125	-115.9408721923828	469.1649169921875	1130.366088867188	-114.0703582763672	723.671142578125	1186.009643554688	-121.641960144043	49.91481399536133	1089.817749023438	-116.0552978515625	353.4210510253906	1136.9384765625	-55.19690322875977	49.08427810668945	1279.389770507812	-18.35232162475586	45.28660202026367	1221.642944335938	-132.5128936767578	37.4929084777832	1192.149047851562	-76.08084106445312	51.72519683837891	1037.8525390625	2.483100652694702	979.8052978515625	1030.233276367188	nan	nan	nan	nan	nan	nan	
442	4.41	130.2676239013672	976.2864990234375	1027.894775390625	63.77431106567383	1025.827392578125	1028.081909179688	91.40007019042969	1234.498657226562	1237.785278320312	79.79965209960938	1142.618408203125	1006.152526855469	111.5653228759766	1393.858764648438	1019.229370117188	102.0073471069336	1355.072387695312	1181.861206054688	37.16735076904297	1253.240966796875	989.038330078125	209.486328125	1349.912719726562	1011.982849121094	267.1245727539062	1373.27197265625	1094.919921875	327.7225646972656	1248.718505859375	1084.292236328125	333.8154602050781	1045.942138671875	1113.735229492188	274.5233154296875	1030.316040039062	1054.907958984375	285.6022644042969	812.6632690429688	1227.59814453125	338.3389587402344	796.9276733398438	1186.180541992188	338.0588684082031	943.06884765625	1135.290771484375	271.1270141601562	648.9517822265625	1237.128540039062	328.0948791503906	726.7377319335938	1185.599853515625	296.6675415039062	732.9303588867188	1241.411743164062	-52.9791374206543	1395.660888671875	1074.572875976562	-118.3401870727539	1332.855346679688	1069.109497070312	-172.0271911621094	1071.74560546875	1111.713134765625	-88.12831878662109	1054.255615234375	1072.1494140625	-127.584846496582	857.3336181640625	1248.761352539062	-199.2466888427734	842.95751953125	1223.269775390625	-183.5606079101562	1008.739318847656	1146.670043945312	-139.9379577636719	691.3994750976562	1289.83447265625	-145.4952850341797	763.6255493164062	1294.0791015625	-200.0816497802734	762.5926513671875	1250.140014648438	32.11019897460938	1612.159057617188	1054.465698242188	157.9989776611328	1624.777099609375	1220.543334960938	57.4765739440918	1629.188598632812	1214.0634765625	176.5803985595703	1600.146484375	1036.566284179688	230.0132598876953	916.4598999023438	1120.3515625	-106.584342956543	930.5869750976562	1112.993286132812	-60.68163681030273	960.7242431640625	1216.628540039062	179.1209869384766	951.2362670898438	1234.461669921875	244.1678466796875	467.7305908203125	1148.727172851562	247.425537109375	606.9779052734375	1153.227661132812	256.174072265625	47.17188262939453	1081.419311523438	262.2150268554688	253.1472930908203	1111.612426757812	191.9960479736328	45.86088943481445	1286.976440429688	153.8505859375	33.46879196166992	1216.764282226562	266.5826110839844	42.80290985107422	1207.975708007812	189.0633697509766	39.70772171020508	1047.812255859375	-116.0075607299805	469.1087951660156	1130.638061523438	-114.3760375976562	723.7314453125	1186.209838867188	-121.5886917114258	49.9435920715332	1089.796020507812	-116.0069122314453	353.4044799804688	1137.131103515625	-55.13331985473633	49.0637321472168	1279.420654296875	-18.30649185180664	45.2561149597168	1221.6357421875	-132.4524078369141	37.52882766723633	1192.153198242188	-76.02468872070312	51.7680778503418	1037.87158203125	2.145354509353638	980.0501098632812	1029.951904296875	nan	nan	nan	nan	nan	nan	
